M48
METRIC,LZ,000.000
;FILE_FORMAT=3:3
;TYPE=PLATED
;Layer: PTH_Through
;EasyEDA v6.5.1, 2022-03-29 12:07:46
;01ad9fd2e89e4baf9ce80d721134fb59,30f33cc809fd450ca7eb4ca7eccbfc45,10
;Gerber Generator version 0.2
;Holesize 1 = 0.889 mm
T01C0.889
;Holesize 2 = 0.900 mm
T02C0.900
;Holesize 3 = 0.901 mm
T03C0.901
;Holesize 4 = 0.915 mm
T04C0.915
;Holesize 5 = 1.000 mm
T05C1.000
%
G05
G90
T01
X009398Y045593
X009398Y048133
T02
X035179Y044577
X035179Y052197
X050840Y048753
X044918Y043957
X037991Y044264
X047861Y052256
T03
X055753Y044577
X053213Y044577
X053467Y051308
X056007Y051308
T04
X009398Y050673
T05
X015621Y044323
X018161Y044323
X020701Y044323
X023241Y044323
X025781Y044323
X028321Y044323
X030861Y044323
X015621Y051943
X018161Y051943
X020701Y051943
X023241Y051943
X025781Y051943
X028321Y051943
X030861Y051943
M30
