G04 Layer: TopSolderMaskLayer*
G04 EasyEDA v6.5.1, 2022-03-29 12:07:46*
G04 01ad9fd2e89e4baf9ce80d721134fb59,30f33cc809fd450ca7eb4ca7eccbfc45,10*
G04 Gerber Generator version 0.2*
G04 Scale: 100 percent, Rotated: No, Reflected: No *
G04 Dimensions in millimeters *
G04 leading zeros omitted , absolute positions ,4 integer and 5 decimal *
%FSLAX45Y45*%
%MOMM*%

%ADD20C,1.6016*%
%ADD21R,1.6764X1.6764*%
%ADD22C,1.6764*%
%ADD23C,1.7526*%
%ADD24C,1.9812*%

%LPD*%
D20*
X1816100Y4457298D02*
G01*
X1816100Y4407298D01*
X2070100Y4457298D02*
G01*
X2070100Y4407298D01*
X2324100Y4457298D02*
G01*
X2324100Y4407298D01*
X2578100Y4457298D02*
G01*
X2578100Y4407298D01*
X2832100Y4457298D02*
G01*
X2832100Y4407298D01*
X3086100Y4457298D02*
G01*
X3086100Y4407298D01*
X1562100Y5219298D02*
G01*
X1562100Y5169298D01*
X1816100Y5219298D02*
G01*
X1816100Y5169298D01*
X2070100Y5219298D02*
G01*
X2070100Y5169298D01*
X2324100Y5219298D02*
G01*
X2324100Y5169298D01*
X2578100Y5219298D02*
G01*
X2578100Y5169298D01*
X2832100Y5219298D02*
G01*
X2832100Y5169298D01*
X3086100Y5219298D02*
G01*
X3086100Y5169298D01*
D21*
G01*
X939800Y4559300D03*
D22*
G01*
X939800Y4813300D03*
G01*
X939800Y5067300D03*
D23*
G01*
X5575300Y4457700D03*
G01*
X5321300Y4457700D03*
G01*
X5346700Y5130800D03*
G01*
X5600700Y5130800D03*
D24*
G01*
X3517900Y4457700D03*
G01*
X3517900Y5219700D03*
G01*
X5083987Y4875276D03*
G01*
X4491812Y4395723D03*
G01*
X3799103Y4426381D03*
G01*
X4786096Y5225618D03*
G36*
X1482089Y4327144D02*
G01*
X1482089Y4537455D01*
X1642110Y4537455D01*
X1642110Y4327144D01*
G37*
M02*
