G04 Layer: TopSilkscreenLayer*
G04 EasyEDA v6.5.1, 2022-03-29 12:07:46*
G04 01ad9fd2e89e4baf9ce80d721134fb59,30f33cc809fd450ca7eb4ca7eccbfc45,10*
G04 Gerber Generator version 0.2*
G04 Scale: 100 percent, Rotated: No, Reflected: No *
G04 Dimensions in millimeters *
G04 leading zeros omitted , absolute positions ,4 integer and 5 decimal *
%FSLAX45Y45*%
%MOMM*%

%ADD10C,0.2540*%
%ADD18C,0.2032*%
%ADD19C,0.1524*%

%LPD*%
D19*
X659384Y4800600D02*
G01*
X768350Y4800600D01*
X659384Y4873244D02*
G01*
X768350Y4873244D01*
X711200Y4800600D02*
G01*
X711200Y4873244D01*
X680212Y4907534D02*
G01*
X674878Y4917947D01*
X659384Y4933695D01*
X768350Y4933695D01*
X5792215Y4483100D02*
G01*
X5683250Y4483100D01*
X5683250Y4483100D02*
G01*
X5683250Y4420870D01*
X5792215Y4386579D02*
G01*
X5683250Y4386579D01*
X5792215Y4386579D02*
G01*
X5792215Y4319015D01*
X5740400Y4386579D02*
G01*
X5740400Y4344923D01*
X5683250Y4386579D02*
G01*
X5683250Y4319015D01*
X5792215Y4284726D02*
G01*
X5683250Y4284726D01*
X5792215Y4284726D02*
G01*
X5792215Y4248150D01*
X5787136Y4232655D01*
X5776722Y4222242D01*
X5766308Y4217162D01*
X5750559Y4211828D01*
X5724652Y4211828D01*
X5709158Y4217162D01*
X5698743Y4222242D01*
X5688329Y4232655D01*
X5683250Y4248150D01*
X5683250Y4284726D01*
X5771388Y4177537D02*
G01*
X5776722Y4167123D01*
X5792215Y4151629D01*
X5683250Y4151629D01*
X5129784Y5105400D02*
G01*
X5238750Y5105400D01*
X5238750Y5105400D02*
G01*
X5238750Y5167629D01*
X5129784Y5201920D02*
G01*
X5238750Y5201920D01*
X5129784Y5201920D02*
G01*
X5129784Y5269484D01*
X5181600Y5201920D02*
G01*
X5181600Y5243576D01*
X5238750Y5201920D02*
G01*
X5238750Y5269484D01*
X5129784Y5303773D02*
G01*
X5238750Y5303773D01*
X5129784Y5303773D02*
G01*
X5129784Y5340350D01*
X5134863Y5355844D01*
X5145277Y5366257D01*
X5155691Y5371337D01*
X5171440Y5376671D01*
X5197347Y5376671D01*
X5212841Y5371337D01*
X5223256Y5366257D01*
X5233670Y5355844D01*
X5238750Y5340350D01*
X5238750Y5303773D01*
X5155691Y5416042D02*
G01*
X5150611Y5416042D01*
X5140197Y5421376D01*
X5134863Y5426455D01*
X5129784Y5436870D01*
X5129784Y5457697D01*
X5134863Y5468112D01*
X5140197Y5473192D01*
X5150611Y5478526D01*
X5161025Y5478526D01*
X5171440Y5473192D01*
X5186934Y5462778D01*
X5238750Y5410962D01*
X5238750Y5483605D01*
X3275584Y4838700D02*
G01*
X3384550Y4838700D01*
X3275584Y4838700D02*
G01*
X3275584Y4885436D01*
X3280663Y4900929D01*
X3285997Y4906263D01*
X3296411Y4911344D01*
X3306825Y4911344D01*
X3317240Y4906263D01*
X3322320Y4900929D01*
X3327400Y4885436D01*
X3327400Y4838700D01*
X3327400Y4875021D02*
G01*
X3384550Y4911344D01*
X3296411Y4945634D02*
G01*
X3291077Y4956047D01*
X3275584Y4971795D01*
X3384550Y4971795D01*
X4902144Y4386127D02*
G01*
X4833569Y4470811D01*
X4902144Y4386127D02*
G01*
X4865822Y4356714D01*
X4850587Y4350913D01*
X4843084Y4351700D01*
X4832578Y4356597D01*
X4826027Y4364690D01*
X4823421Y4375983D01*
X4824369Y4383285D01*
X4833218Y4396983D01*
X4869535Y4426397D01*
X4841308Y4403537D02*
G01*
X4777112Y4425094D01*
X4798590Y4335609D02*
G01*
X4801788Y4331662D01*
X4804397Y4320372D01*
X4803604Y4312869D01*
X4798710Y4302368D01*
X4782720Y4289419D01*
X4771433Y4286813D01*
X4763927Y4287603D01*
X4753424Y4292498D01*
X4746871Y4300593D01*
X4744265Y4311883D01*
X4742609Y4330479D01*
X4750468Y4403514D01*
X4693815Y4357641D01*
X4092150Y5073535D02*
G01*
X4160725Y4988852D01*
X4092150Y5073535D02*
G01*
X4128472Y5102946D01*
X4143710Y5108747D01*
X4151213Y5107957D01*
X4161713Y5103063D01*
X4168266Y5094970D01*
X4170875Y5083680D01*
X4169925Y5076375D01*
X4161081Y5062677D01*
X4124761Y5033263D01*
X4152986Y5056121D02*
G01*
X4217179Y5034569D01*
X4223814Y5180152D02*
G01*
X4183349Y5147383D01*
X4208810Y5107866D01*
X4209562Y5115008D01*
X4218444Y5129065D01*
X4230486Y5138816D01*
X4245884Y5144422D01*
X4260369Y5143080D01*
X4274426Y5134198D01*
X4280979Y5126106D01*
X4286585Y5110706D01*
X4285046Y5096060D01*
X4276201Y5082362D01*
X4264162Y5072611D01*
X4248726Y5066647D01*
X4241579Y5067399D01*
X4230880Y5072136D01*
X2298700Y5411215D02*
G01*
X2298700Y5333237D01*
X2303779Y5317744D01*
X2314193Y5307329D01*
X2329941Y5302250D01*
X2340356Y5302250D01*
X2355850Y5307329D01*
X2366263Y5317744D01*
X2371343Y5333237D01*
X2371343Y5411215D01*
X2405634Y5390387D02*
G01*
X2416047Y5395721D01*
X2431795Y5411215D01*
X2431795Y5302250D01*
D18*
X812800Y4940300D02*
G01*
X812800Y5194300D01*
X1064260Y5194300D01*
X1064260Y4432300D01*
X812800Y4432300D01*
X812800Y4940300D01*
D10*
X5280152Y4584700D02*
G01*
X5279618Y4329912D01*
X5641847Y5003800D02*
G01*
X5642381Y5258587D01*
X3517900Y4584700D02*
G01*
X3517900Y4559300D01*
X3517900Y5092700D02*
G01*
X3517900Y5118100D01*
X3517900Y4584700D02*
G01*
X3441700Y4584700D01*
X3594100Y4584700D02*
G01*
X3517900Y4584700D01*
X3594100Y5092700D02*
G01*
X3594100Y4584700D01*
X3517900Y5092700D02*
G01*
X3594100Y5092700D01*
X3441700Y5092700D02*
G01*
X3517900Y5092700D01*
X3441700Y4584700D02*
G01*
X3441700Y5092700D01*
X4985296Y4795349D02*
G01*
X5005034Y4811331D01*
X4590503Y4475650D02*
G01*
X4570765Y4459668D01*
X4985296Y4795349D02*
G01*
X5033251Y4736127D01*
X4937340Y4854564D02*
G01*
X4985296Y4795349D01*
X4542548Y4534872D02*
G01*
X4937340Y4854564D01*
X4590503Y4475650D02*
G01*
X4542548Y4534872D01*
X4638459Y4416435D02*
G01*
X4590503Y4475650D01*
X5033251Y4736127D02*
G01*
X4638459Y4416435D01*
X4047111Y4414763D02*
G01*
X3839309Y4671377D01*
X3839309Y4671377D02*
G01*
X4538088Y5237236D01*
X4538088Y5237236D02*
G01*
X4745890Y4980622D01*
X4745890Y4980622D02*
G01*
X4047111Y4414763D01*
X3276600Y5130800D02*
G01*
X3276600Y4495800D01*
X3165541Y5130800D02*
G01*
X3276600Y5130800D01*
X2911541Y5130800D02*
G01*
X3006658Y5130800D01*
X2657541Y5130800D02*
G01*
X2752658Y5130800D01*
X2403541Y5130800D02*
G01*
X2498658Y5130800D01*
X2149541Y5130800D02*
G01*
X2244658Y5130800D01*
X1895541Y5130800D02*
G01*
X1990658Y5130800D01*
X1641541Y5130800D02*
G01*
X1736658Y5130800D01*
X1371600Y5130800D02*
G01*
X1482658Y5130800D01*
X1371600Y5130800D02*
G01*
X1371600Y4902200D01*
X1463984Y4495800D02*
G01*
X1371600Y4495800D01*
X1371600Y4724400D01*
X1736658Y4495800D02*
G01*
X1660215Y4495800D01*
X1990658Y4495800D02*
G01*
X1895541Y4495800D01*
X2244658Y4495800D02*
G01*
X2149541Y4495800D01*
X2498658Y4495800D02*
G01*
X2403541Y4495800D01*
X2752658Y4495800D02*
G01*
X2657541Y4495800D01*
X3006658Y4495800D02*
G01*
X2911541Y4495800D01*
X3276600Y4495800D02*
G01*
X3165541Y4495800D01*
G75*
G01*
X5280152Y4331157D02*
G03*
X5280152Y4584649I154710J126746D01*
G75*
G01*
X5641848Y5257343D02*
G03*
X5641848Y5003851I-154710J-126746D01*
G75*
G01*
X1371600Y4724400D02*
G03*
X1371600Y4902200I0J88900D01*
M02*
