M48
METRIC,LZ,000.000
;FILE_FORMAT=3:3
;TYPE=PLATED
;Layer: PTH_Through
;EasyEDA v6.4.31, 2022-03-16 09:40:05
;30f33cc809fd450ca7eb4ca7eccbfc45,10
;Gerber Generator version 0.2
;Holesize 1 = 0.889 mm
T01C0.889
;Holesize 2 = 0.900 mm
T02C0.900
;Holesize 3 = 0.901 mm
T03C0.901
;Holesize 4 = 0.915 mm
T04C0.915
;Holesize 5 = 1.000 mm
T05C1.000
%
G05
G90
T01
X033274Y054229
X033274Y051689
T02
X036957Y044704
X029337Y044704
X036957Y041275
X029337Y041275
X026486Y041078
X014408Y037154
T03
X009652Y040640
X012192Y040640
X012319Y035560
X009779Y035560
T04
X033274Y049149
T05
X010287Y045339
X012827Y045339
X015367Y045339
X017907Y045339
X020447Y045339
X022987Y045339
X025527Y045339
X010287Y052959
X012827Y052959
X015367Y052959
X017907Y052959
X020447Y052959
X022987Y052959
X025527Y052959
M30
