G04 Layer: TopSolderMaskLayer*
G04 EasyEDA v6.4.31, 2022-03-16 09:40:05*
G04 30f33cc809fd450ca7eb4ca7eccbfc45,10*
G04 Gerber Generator version 0.2*
G04 Scale: 100 percent, Rotated: No, Reflected: No *
G04 Dimensions in millimeters *
G04 leading zeros omitted , absolute positions ,4 integer and 5 decimal *
%FSLAX45Y45*%
%MOMM*%

%ADD20C,1.6016*%
%ADD22C,1.6764*%
%ADD23C,1.7526*%
%ADD24C,1.9812*%

%LPD*%
D20*
X1282700Y4558898D02*
G01*
X1282700Y4508898D01*
X1536700Y4558898D02*
G01*
X1536700Y4508898D01*
X1790700Y4558898D02*
G01*
X1790700Y4508898D01*
X2044700Y4558898D02*
G01*
X2044700Y4508898D01*
X2298700Y4558898D02*
G01*
X2298700Y4508898D01*
X2552700Y4558898D02*
G01*
X2552700Y4508898D01*
X1028700Y5320898D02*
G01*
X1028700Y5270898D01*
X1282700Y5320898D02*
G01*
X1282700Y5270898D01*
X1536700Y5320898D02*
G01*
X1536700Y5270898D01*
X1790700Y5320898D02*
G01*
X1790700Y5270898D01*
X2044700Y5320898D02*
G01*
X2044700Y5270898D01*
X2298700Y5320898D02*
G01*
X2298700Y5270898D01*
X2552700Y5320898D02*
G01*
X2552700Y5270898D01*
G36*
X3243579Y5339079D02*
G01*
X3243579Y5506720D01*
X3411220Y5506720D01*
X3411220Y5339079D01*
G37*
D22*
G01*
X3327400Y5168900D03*
G01*
X3327400Y4914900D03*
D23*
G01*
X965200Y4064000D03*
G01*
X1219200Y4064000D03*
G01*
X1231900Y3556000D03*
G01*
X977900Y3556000D03*
D24*
G01*
X3695700Y4470400D03*
G01*
X2933700Y4470400D03*
G01*
X3695700Y4127500D03*
G01*
X2933700Y4127500D03*
G01*
X2648620Y4107825D03*
G01*
X1440779Y3715374D03*
G36*
X948689Y4428744D02*
G01*
X948689Y4639055D01*
X1108710Y4639055D01*
X1108710Y4428744D01*
G37*
M02*
