M48
METRIC,LZ,000.000
;FILE_FORMAT=3:3
;TYPE=PLATED
;Layer: PTH_Through
;EasyEDA v6.4.31, 2022-02-21 10:24:03
;30f33cc809fd450ca7eb4ca7eccbfc45,10
;Gerber Generator version 0.2
;Holesize 1 = 0.889 mm
T01C0.889
;Holesize 2 = 0.900 mm
T02C0.900
;Holesize 3 = 0.901 mm
T03C0.901
;Holesize 4 = 1.000 mm
T04C1.000
%
G05
G90
T01
X034798Y050927
X037338Y050927
X043053Y051054
T02
X012954Y038989
X025654Y038989
X012827Y032385
X025527Y032385
X030861Y039243
X043561Y039243
T03
X034290Y033401
X034290Y030861
X041402Y033401
X041402Y030861
T04
X012954Y043561
X015494Y043561
X018034Y043561
X020574Y043561
X023114Y043561
X025654Y043561
X028194Y043561
X012954Y051181
X015494Y051181
X018034Y051181
X020574Y051181
X023114Y051181
X025654Y051181
X028194Y051181
M30
