G04 Layer: BottomSolderMaskLayer*
G04 EasyEDA v6.4.31, 2022-02-21 10:24:03*
G04 30f33cc809fd450ca7eb4ca7eccbfc45,10*
G04 Gerber Generator version 0.2*
G04 Scale: 100 percent, Rotated: No, Reflected: No *
G04 Dimensions in millimeters *
G04 leading zeros omitted , absolute positions ,4 integer and 5 decimal *
%FSLAX45Y45*%
%MOMM*%

%ADD21C,1.6016*%
%ADD23C,1.6764*%
%ADD24C,1.7526*%
%ADD25C,1.9812*%

%LPD*%
D21*
X1549400Y4381098D02*
G01*
X1549400Y4331098D01*
X1803400Y4381098D02*
G01*
X1803400Y4331098D01*
X2057400Y4381098D02*
G01*
X2057400Y4331098D01*
X2311400Y4381098D02*
G01*
X2311400Y4331098D01*
X2565400Y4381098D02*
G01*
X2565400Y4331098D01*
X2819400Y4381098D02*
G01*
X2819400Y4331098D01*
X1295400Y5143098D02*
G01*
X1295400Y5093098D01*
X1549400Y5143098D02*
G01*
X1549400Y5093098D01*
X1803400Y5143098D02*
G01*
X1803400Y5093098D01*
X2057400Y5143098D02*
G01*
X2057400Y5093098D01*
X2311400Y5143098D02*
G01*
X2311400Y5093098D01*
X2565400Y5143098D02*
G01*
X2565400Y5093098D01*
X2819400Y5143098D02*
G01*
X2819400Y5093098D01*
G36*
X3395979Y5008879D02*
G01*
X3395979Y5176520D01*
X3563620Y5176520D01*
X3563620Y5008879D01*
G37*
D23*
G01*
X3733800Y5092700D03*
G36*
X4221479Y5021579D02*
G01*
X4221479Y5189220D01*
X4389120Y5189220D01*
X4389120Y5021579D01*
G37*
D24*
G01*
X3429000Y3340100D03*
G01*
X3429000Y3086100D03*
G01*
X4140200Y3340100D03*
G01*
X4140200Y3086100D03*
D25*
G01*
X1295400Y3898900D03*
G01*
X2565400Y3898900D03*
G01*
X1282700Y3238500D03*
G01*
X2552700Y3238500D03*
G01*
X3086100Y3924300D03*
G01*
X4356100Y3924300D03*
G36*
X1215389Y4250944D02*
G01*
X1215389Y4461255D01*
X1375410Y4461255D01*
X1375410Y4250944D01*
G37*
M02*
