G04 Layer: TopSilkscreenLayer*
G04 EasyEDA v6.4.31, 2022-02-21 10:24:03*
G04 30f33cc809fd450ca7eb4ca7eccbfc45,10*
G04 Gerber Generator version 0.2*
G04 Scale: 100 percent, Rotated: No, Reflected: No *
G04 Dimensions in millimeters *
G04 leading zeros omitted , absolute positions ,4 integer and 5 decimal *
%FSLAX45Y45*%
%MOMM*%

%ADD10C,0.2540*%
%ADD18C,0.2032*%
%ADD19C,0.2030*%
%ADD20C,0.1524*%

%LPD*%
D20*
X3581400Y5360415D02*
G01*
X3581400Y5251450D01*
X3654043Y5360415D02*
G01*
X3654043Y5251450D01*
X3581400Y5308600D02*
G01*
X3654043Y5308600D01*
X3688334Y5339587D02*
G01*
X3698747Y5344921D01*
X3714495Y5360415D01*
X3714495Y5251450D01*
X4357370Y5362955D02*
G01*
X4357370Y5279897D01*
X4352036Y5264150D01*
X4346956Y5259070D01*
X4336541Y5253989D01*
X4326127Y5253989D01*
X4315713Y5259070D01*
X4310379Y5264150D01*
X4305300Y5279897D01*
X4305300Y5290312D01*
X4391659Y5342128D02*
G01*
X4401820Y5347462D01*
X4417568Y5362955D01*
X4417568Y5253989D01*
X3403600Y3557015D02*
G01*
X3403600Y3448050D01*
X3403600Y3448050D02*
G01*
X3465829Y3448050D01*
X3500120Y3557015D02*
G01*
X3500120Y3448050D01*
X3500120Y3557015D02*
G01*
X3567684Y3557015D01*
X3500120Y3505200D02*
G01*
X3541775Y3505200D01*
X3500120Y3448050D02*
G01*
X3567684Y3448050D01*
X3601974Y3557015D02*
G01*
X3601974Y3448050D01*
X3601974Y3557015D02*
G01*
X3638550Y3557015D01*
X3654043Y3551936D01*
X3664458Y3541521D01*
X3669538Y3531107D01*
X3674872Y3515360D01*
X3674872Y3489452D01*
X3669538Y3473957D01*
X3664458Y3463544D01*
X3654043Y3453129D01*
X3638550Y3448050D01*
X3601974Y3448050D01*
X3709161Y3536187D02*
G01*
X3719575Y3541521D01*
X3735070Y3557015D01*
X3735070Y3448050D01*
X4114800Y3557015D02*
G01*
X4114800Y3448050D01*
X4114800Y3448050D02*
G01*
X4177029Y3448050D01*
X4211320Y3557015D02*
G01*
X4211320Y3448050D01*
X4211320Y3557015D02*
G01*
X4278884Y3557015D01*
X4211320Y3505200D02*
G01*
X4252975Y3505200D01*
X4211320Y3448050D02*
G01*
X4278884Y3448050D01*
X4313174Y3557015D02*
G01*
X4313174Y3448050D01*
X4313174Y3557015D02*
G01*
X4349750Y3557015D01*
X4365243Y3551936D01*
X4375658Y3541521D01*
X4380738Y3531107D01*
X4386072Y3515360D01*
X4386072Y3489452D01*
X4380738Y3473957D01*
X4375658Y3463544D01*
X4365243Y3453129D01*
X4349750Y3448050D01*
X4313174Y3448050D01*
X4425441Y3531107D02*
G01*
X4425441Y3536187D01*
X4430775Y3546602D01*
X4435856Y3551936D01*
X4446270Y3557015D01*
X4467097Y3557015D01*
X4477511Y3551936D01*
X4482591Y3546602D01*
X4487925Y3536187D01*
X4487925Y3525773D01*
X4482591Y3515360D01*
X4472177Y3499865D01*
X4420361Y3448050D01*
X4493006Y3448050D01*
X1905000Y4217415D02*
G01*
X1905000Y4108450D01*
X1905000Y4217415D02*
G01*
X1951736Y4217415D01*
X1967229Y4212336D01*
X1972563Y4207002D01*
X1977643Y4196587D01*
X1977643Y4186173D01*
X1972563Y4175760D01*
X1967229Y4170679D01*
X1951736Y4165600D01*
X1905000Y4165600D01*
X1941322Y4165600D02*
G01*
X1977643Y4108450D01*
X2011934Y4196587D02*
G01*
X2022347Y4201921D01*
X2038095Y4217415D01*
X2038095Y4108450D01*
X1917700Y3557015D02*
G01*
X1917700Y3448050D01*
X1917700Y3557015D02*
G01*
X1964436Y3557015D01*
X1979929Y3551936D01*
X1985263Y3546602D01*
X1990343Y3536187D01*
X1990343Y3525773D01*
X1985263Y3515360D01*
X1979929Y3510279D01*
X1964436Y3505200D01*
X1917700Y3505200D01*
X1954022Y3505200D02*
G01*
X1990343Y3448050D01*
X2029968Y3531107D02*
G01*
X2029968Y3536187D01*
X2035047Y3546602D01*
X2040381Y3551936D01*
X2050795Y3557015D01*
X2071370Y3557015D01*
X2081784Y3551936D01*
X2087118Y3546602D01*
X2092197Y3536187D01*
X2092197Y3525773D01*
X2087118Y3515360D01*
X2076704Y3499865D01*
X2024634Y3448050D01*
X2097531Y3448050D01*
X3721100Y4242815D02*
G01*
X3721100Y4133850D01*
X3721100Y4242815D02*
G01*
X3767836Y4242815D01*
X3783329Y4237736D01*
X3788663Y4232402D01*
X3793743Y4221987D01*
X3793743Y4211573D01*
X3788663Y4201160D01*
X3783329Y4196079D01*
X3767836Y4191000D01*
X3721100Y4191000D01*
X3757422Y4191000D02*
G01*
X3793743Y4133850D01*
X3890518Y4242815D02*
G01*
X3838447Y4242815D01*
X3833368Y4196079D01*
X3838447Y4201160D01*
X3854195Y4206494D01*
X3869690Y4206494D01*
X3885184Y4201160D01*
X3895597Y4191000D01*
X3900931Y4175252D01*
X3900931Y4164837D01*
X3895597Y4149344D01*
X3885184Y4138929D01*
X3869690Y4133850D01*
X3854195Y4133850D01*
X3838447Y4138929D01*
X3833368Y4144010D01*
X3828034Y4154423D01*
X2032000Y5335015D02*
G01*
X2032000Y5257037D01*
X2037079Y5241544D01*
X2047493Y5231129D01*
X2063241Y5226050D01*
X2073656Y5226050D01*
X2089150Y5231129D01*
X2099563Y5241544D01*
X2104643Y5257037D01*
X2104643Y5335015D01*
X2138934Y5314187D02*
G01*
X2149347Y5319521D01*
X2165095Y5335015D01*
X2165095Y5226050D01*
D18*
X3860800Y5219700D02*
G01*
X3860800Y4968239D01*
X3352800Y4968239D01*
X3352800Y5219700D01*
X3860800Y5219700D01*
X4432300Y4978400D02*
G01*
X4178300Y4978400D01*
X4178300Y5232400D01*
X4432300Y5232400D01*
X4432300Y5041900D01*
D19*
X4432300Y4978400D02*
G01*
X4432300Y5041900D01*
D10*
X3302000Y3044952D02*
G01*
X3556787Y3044418D01*
X4013200Y3044952D02*
G01*
X4267987Y3044418D01*
X1480820Y3733800D02*
G01*
X1480820Y4064000D01*
X1480820Y4064000D02*
G01*
X2379979Y4064000D01*
X2379979Y4064000D02*
G01*
X2379979Y3733800D01*
X2379979Y3733800D02*
G01*
X1480820Y3733800D01*
X1468120Y3073400D02*
G01*
X1468120Y3403600D01*
X1468120Y3403600D02*
G01*
X2367279Y3403600D01*
X2367279Y3403600D02*
G01*
X2367279Y3073400D01*
X2367279Y3073400D02*
G01*
X1468120Y3073400D01*
X3271520Y3759200D02*
G01*
X3271520Y4089400D01*
X3271520Y4089400D02*
G01*
X4170679Y4089400D01*
X4170679Y4089400D02*
G01*
X4170679Y3759200D01*
X4170679Y3759200D02*
G01*
X3271520Y3759200D01*
X3009900Y5054600D02*
G01*
X3009900Y4419600D01*
X2898841Y5054600D02*
G01*
X3009900Y5054600D01*
X2644841Y5054600D02*
G01*
X2739958Y5054600D01*
X2390841Y5054600D02*
G01*
X2485958Y5054600D01*
X2136841Y5054600D02*
G01*
X2231958Y5054600D01*
X1882841Y5054600D02*
G01*
X1977958Y5054600D01*
X1628841Y5054600D02*
G01*
X1723958Y5054600D01*
X1374841Y5054600D02*
G01*
X1469958Y5054600D01*
X1104900Y5054600D02*
G01*
X1215958Y5054600D01*
X1104900Y5054600D02*
G01*
X1104900Y4826000D01*
X1197284Y4419600D02*
G01*
X1104900Y4419600D01*
X1104900Y4648200D01*
X1469958Y4419600D02*
G01*
X1393515Y4419600D01*
X1723958Y4419600D02*
G01*
X1628841Y4419600D01*
X1977958Y4419600D02*
G01*
X1882841Y4419600D01*
X2231958Y4419600D02*
G01*
X2136841Y4419600D01*
X2485958Y4419600D02*
G01*
X2390841Y4419600D01*
X2739958Y4419600D02*
G01*
X2644841Y4419600D01*
X3009900Y4419600D02*
G01*
X2898841Y4419600D01*
G75*
G01*
X3555543Y3044952D02*
G03*
X3302051Y3044952I-126746J154710D01*
G75*
G01*
X4266743Y3044952D02*
G03*
X4013251Y3044952I-126746J154710D01*
G75*
G01*
X1104900Y4648200D02*
G03*
X1104900Y4826000I0J88900D01*
M02*
